<?xml version="1.0" encoding="utf-8"?>
<!-- Generated by IcoMoon.io -->
<!DOCTYPE svg PUBLIC "-//W3C//DTD SVG 1.1//EN" "http://www.w3.org/Graphics/SVG/1.1/DTD/svg11.dtd">
<svg version="1.1" xmlns="http://www.w3.org/2000/svg" xmlns:xlink="http://www.w3.org/1999/xlink" width="48" height="48" viewBox="0 0 48 48">
<g id="icomoon-ignore">
	<line stroke-width="1" x1="" y1="" x2="" y2="" stroke="#449FDB" opacity=""></line>
</g>
	<path d="M48 9.113c-1.766 0.783-3.664 1.313-5.656 1.551 2.033-1.219 3.595-3.149 4.33-5.448-1.903 1.129-4.010 1.948-6.254 2.39-1.796-1.914-4.356-3.11-7.188-3.11-5.439 0-9.848 4.409-9.848 9.847 0 0.772 0.087 1.523 0.255 2.244-8.184-0.411-15.441-4.331-20.298-10.289-0.848 1.454-1.333 3.146-1.333 4.951 0 3.417 1.738 6.431 4.381 8.197-1.614-0.051-3.133-0.494-4.46-1.232-0.001 0.041-0.001 0.082-0.001 0.124 0 4.771 3.395 8.751 7.899 9.656-0.826 0.225-1.696 0.346-2.594 0.346-0.635 0-1.251-0.062-1.853-0.177 1.253 3.912 4.89 6.76 9.199 6.839-3.37 2.641-7.617 4.216-12.23 4.216-0.795 0-1.579-0.047-2.349-0.138 4.358 2.794 9.534 4.425 15.096 4.425 18.114 0 28.019-15.006 28.019-28.019 0-0.427-0.010-0.852-0.029-1.274 1.925-1.388 3.594-3.123 4.914-5.098z" fill="#000000"></path>
</svg>
